<svg xmlns="http://www.w3.org/2000/svg" xmlns:xlink="http://www.w3.org/1999/xlink" width="250" zoomAndPan="magnify" viewBox="0 0 187.5 187.499992" height="250" preserveAspectRatio="xMidYMid meet" version="1.0"><defs><clipPath id="5193755f9d"><path d="M 34.976562 60.527344 L 151.660156 60.527344 L 151.660156 126.351562 L 34.976562 126.351562 Z M 34.976562 60.527344 " clip-rule="nonzero"/></clipPath></defs><path fill="#ffffff" d="M 112.367188 86.976562 L 108.539062 89.632812 C 107.820312 90.136719 107.3125 90.703125 107 91.34375 C 106.691406 91.984375 106.59375 92.609375 106.710938 93.210938 C 106.835938 93.851562 107.125 94.226562 107.582031 94.339844 C 108.035156 94.453125 108.578125 94.335938 109.207031 93.988281 C 110.5625 93.234375 111.78125 91.746094 112.855469 89.523438 L 112.363281 86.980469 Z M 112.367188 86.976562 " fill-opacity="1" fill-rule="nonzero"/><path fill="#ffffff" d="M 78.523438 86.746094 C 78.394531 86.085938 78.101562 85.566406 77.640625 85.183594 C 77.179688 84.804688 76.628906 84.597656 75.988281 84.566406 C 75.34375 84.539062 74.683594 84.710938 74.003906 85.089844 C 72.816406 85.746094 71.929688 86.707031 71.332031 87.976562 C 70.738281 89.242188 70.605469 90.726562 70.933594 92.421875 C 71.261719 94.113281 71.886719 95.175781 72.804688 95.601562 C 73.730469 96.03125 74.78125 95.914062 75.96875 95.257812 C 76.648438 94.878906 77.246094 94.359375 77.765625 93.699219 C 78.285156 93.035156 78.660156 92.328125 78.886719 91.574219 C 79.117188 90.824219 79.171875 90.117188 79.042969 89.457031 L 78.519531 86.746094 Z M 78.523438 86.746094 " fill-opacity="1" fill-rule="nonzero"/><g clip-path="url(#5193755f9d)"><path fill="#ffffff" d="M 146.28125 64.160156 L 146.097656 64.261719 L 146.058594 64.089844 L 145.875 64.191406 L 145.835938 64.019531 L 145.652344 64.121094 L 145.613281 63.953125 L 145.429688 64.054688 L 145.390625 63.882812 L 145.207031 63.984375 L 145.167969 63.8125 L 144.984375 63.914062 L 144.945312 63.742188 L 144.761719 63.84375 L 144.722656 63.671875 L 144.539062 63.773438 L 144.5 63.601562 L 144.316406 63.703125 L 144.277344 63.53125 L 144.09375 63.632812 L 144.054688 63.460938 L 143.871094 63.5625 L 143.832031 63.394531 L 143.648438 63.496094 L 143.609375 63.324219 L 143.425781 63.425781 L 143.386719 63.253906 L 143.203125 63.355469 L 143.164062 63.183594 L 142.980469 63.285156 L 142.941406 63.113281 L 142.757812 63.214844 L 142.71875 63.042969 L 142.535156 63.144531 L 142.496094 62.972656 L 142.3125 63.074219 L 142.273438 62.902344 L 142.089844 63.003906 L 142.050781 62.835938 L 141.867188 62.9375 L 141.828125 62.765625 L 141.644531 62.867188 L 141.605469 62.695312 L 141.421875 62.796875 L 141.382812 62.625 L 141.199219 62.726562 L 141.160156 62.554688 L 140.976562 62.65625 L 140.9375 62.484375 L 140.753906 62.585938 L 140.714844 62.414062 L 140.53125 62.515625 L 140.492188 62.34375 L 140.308594 62.445312 L 140.269531 62.277344 L 140.085938 62.378906 L 140.046875 62.207031 L 139.863281 62.308594 L 139.824219 62.136719 L 139.640625 62.238281 L 139.601562 62.066406 L 139.417969 62.167969 L 139.378906 61.996094 L 139.195312 62.097656 L 139.15625 61.925781 L 138.972656 62.027344 L 138.933594 61.855469 L 138.75 61.957031 L 138.710938 61.785156 L 138.527344 61.886719 L 138.488281 61.71875 L 138.304688 61.820312 L 138.265625 61.648438 L 138.082031 61.75 L 138.042969 61.578125 L 137.859375 61.679688 L 137.820312 61.507812 L 137.636719 61.609375 L 137.597656 61.4375 L 137.414062 61.539062 L 137.375 61.367188 L 137.191406 61.46875 L 137.152344 61.296875 L 136.96875 61.398438 L 136.929688 61.226562 L 136.746094 61.328125 L 136.707031 61.160156 L 136.523438 61.261719 L 136.484375 61.089844 L 136.300781 61.191406 L 136.261719 61.019531 L 136.078125 61.121094 L 136.039062 60.949219 L 135.855469 61.050781 L 135.816406 60.878906 L 135.632812 60.980469 L 135.59375 60.808594 L 135.410156 60.910156 L 135.371094 60.738281 L 135.1875 60.839844 L 135.148438 60.667969 L 134.964844 60.769531 L 134.925781 60.601562 L 109.21875 73.421875 L 107.851562 66.1875 L 107.660156 66.292969 L 107.625 66.117188 L 107.433594 66.222656 L 107.398438 66.042969 L 107.207031 66.148438 L 107.171875 65.96875 L 106.984375 66.074219 L 106.949219 65.898438 L 106.757812 66 L 106.722656 65.824219 L 106.53125 65.929688 L 106.496094 65.75 L 106.304688 65.855469 L 106.269531 65.679688 L 106.078125 65.78125 L 106.042969 65.605469 L 105.851562 65.710938 L 105.820312 65.53125 L 105.628906 65.636719 L 105.59375 65.460938 L 105.402344 65.5625 L 105.367188 65.386719 L 105.175781 65.492188 L 105.140625 65.3125 L 104.949219 65.417969 L 104.914062 65.238281 L 104.722656 65.34375 L 104.6875 65.167969 L 104.5 65.273438 L 104.464844 65.09375 L 104.273438 65.199219 L 104.238281 65.019531 L 104.046875 65.125 L 104.011719 64.949219 L 103.820312 65.054688 L 103.785156 64.875 L 103.59375 64.980469 L 103.558594 64.800781 L 103.371094 64.90625 L 103.335938 64.730469 L 103.144531 64.832031 L 103.109375 64.65625 L 102.917969 64.761719 L 102.882812 64.582031 L 102.691406 64.6875 L 102.65625 64.511719 L 102.464844 64.613281 L 102.429688 64.4375 L 102.238281 64.542969 L 102.207031 64.363281 L 102.015625 64.46875 L 101.980469 64.292969 L 101.789062 64.394531 L 101.753906 64.21875 L 101.5625 64.324219 L 101.527344 64.144531 L 101.335938 64.25 L 101.300781 64.070312 L 101.109375 64.175781 L 101.074219 64 L 100.886719 64.105469 L 100.851562 63.925781 L 100.660156 64.03125 L 100.625 63.851562 L 100.433594 63.957031 L 100.398438 63.78125 L 100.207031 63.886719 L 100.171875 63.707031 L 99.980469 63.8125 L 99.945312 63.632812 L 99.757812 63.738281 L 99.722656 63.5625 L 99.53125 63.664062 L 99.496094 63.488281 L 99.304688 63.59375 L 99.269531 63.414062 L 99.078125 63.519531 L 99.042969 63.34375 L 98.851562 63.445312 L 98.816406 63.269531 L 98.625 63.375 L 98.59375 63.195312 L 98.402344 63.300781 L 98.367188 63.125 L 98.175781 63.226562 L 98.140625 63.050781 L 97.949219 63.15625 L 97.914062 62.976562 L 97.722656 63.082031 L 97.6875 62.902344 L 97.496094 63.007812 L 97.460938 62.832031 L 97.273438 62.9375 L 97.238281 62.757812 L 97.046875 62.863281 L 97.011719 62.683594 L 96.820312 62.789062 L 96.785156 62.613281 L 96.59375 62.71875 L 96.558594 62.539062 L 96.367188 62.644531 L 96.332031 62.464844 L 34.976562 96.695312 L 39.636719 122.832031 L 39.824219 122.722656 L 39.859375 122.902344 L 40.046875 122.792969 L 40.082031 122.972656 L 40.269531 122.863281 L 40.304688 123.039062 L 40.492188 122.933594 L 40.527344 123.109375 L 40.714844 123.003906 L 40.746094 123.179688 L 40.9375 123.074219 L 40.96875 123.25 L 41.160156 123.140625 L 41.191406 123.320312 L 41.382812 123.210938 L 41.414062 123.390625 L 41.605469 123.28125 L 41.636719 123.460938 L 41.828125 123.351562 L 41.859375 123.53125 L 42.050781 123.421875 L 42.082031 123.597656 L 42.273438 123.492188 L 42.304688 123.667969 L 42.496094 123.5625 L 42.527344 123.738281 L 42.71875 123.632812 L 42.75 123.808594 L 42.941406 123.699219 L 42.972656 123.878906 L 43.164062 123.769531 L 43.195312 123.949219 L 43.386719 123.839844 L 43.417969 124.019531 L 43.609375 123.910156 L 43.640625 124.089844 L 43.832031 123.980469 L 43.863281 124.15625 L 44.054688 124.050781 L 44.085938 124.226562 L 44.277344 124.121094 L 44.308594 124.296875 L 44.496094 124.191406 L 44.53125 124.367188 L 44.722656 124.257812 L 44.753906 124.4375 L 44.945312 124.328125 L 44.976562 124.507812 L 45.164062 124.398438 L 45.199219 124.578125 L 45.386719 124.46875 L 45.421875 124.648438 L 45.609375 124.539062 L 45.644531 124.714844 L 45.832031 124.609375 L 45.867188 124.785156 L 46.054688 124.679688 L 46.089844 124.855469 L 46.277344 124.75 L 46.3125 124.925781 L 46.5 124.816406 L 46.535156 124.996094 L 46.722656 124.886719 L 46.757812 125.066406 L 46.945312 124.957031 L 46.980469 125.136719 L 47.167969 125.027344 L 47.203125 125.207031 L 47.390625 125.097656 L 47.425781 125.273438 L 47.613281 125.167969 L 47.648438 125.34375 L 47.835938 125.238281 L 47.871094 125.414062 L 48.058594 125.308594 L 48.09375 125.484375 L 48.28125 125.375 L 48.316406 125.554688 L 48.503906 125.445312 L 48.539062 125.625 L 48.726562 125.515625 L 48.761719 125.695312 L 48.949219 125.585938 L 48.984375 125.765625 L 49.171875 125.65625 L 49.207031 125.832031 L 49.394531 125.726562 L 49.429688 125.902344 L 49.617188 125.796875 L 49.652344 125.972656 L 49.839844 125.867188 L 49.875 126.042969 L 50.0625 125.933594 L 50.097656 126.113281 L 50.285156 126.003906 L 50.320312 126.183594 L 50.507812 126.074219 L 50.542969 126.253906 L 50.730469 126.144531 L 50.765625 126.324219 L 50.953125 126.214844 L 50.988281 126.390625 L 81.710938 108.964844 L 82.628906 114.304688 L 82.820312 114.195312 L 82.855469 114.375 L 83.046875 114.265625 L 83.078125 114.441406 L 83.273438 114.335938 L 83.304688 114.511719 L 83.5 114.40625 L 83.53125 114.582031 L 83.726562 114.476562 L 83.757812 114.652344 L 83.953125 114.542969 L 83.984375 114.722656 L 84.175781 114.613281 L 84.207031 114.792969 L 84.402344 114.683594 L 84.433594 114.863281 L 84.628906 114.753906 L 84.660156 114.933594 L 84.855469 114.824219 L 84.886719 115 L 85.082031 114.894531 L 85.113281 115.070312 L 85.304688 114.964844 L 85.339844 115.140625 L 85.53125 115.035156 L 85.5625 115.210938 L 85.757812 115.101562 L 85.789062 115.28125 L 85.984375 115.171875 L 86.015625 115.351562 L 86.210938 115.242188 L 86.242188 115.421875 L 86.433594 115.3125 L 86.46875 115.492188 L 86.660156 115.382812 L 86.691406 115.558594 L 86.886719 115.453125 L 86.917969 115.628906 L 87.113281 115.523438 L 87.144531 115.699219 L 87.339844 115.59375 L 87.371094 115.769531 L 87.566406 115.660156 L 87.597656 115.839844 L 87.789062 115.730469 L 87.820312 115.910156 L 88.015625 115.800781 L 88.046875 115.980469 L 88.242188 115.871094 L 88.273438 116.050781 L 88.46875 115.941406 L 88.5 116.117188 L 88.695312 116.011719 L 88.726562 116.1875 L 88.917969 116.082031 L 88.953125 116.257812 L 89.144531 116.152344 L 89.175781 116.328125 L 89.371094 116.21875 L 89.402344 116.398438 L 89.597656 116.289062 L 89.628906 116.46875 L 89.824219 116.359375 L 89.855469 116.539062 L 90.046875 116.429688 L 90.082031 116.609375 L 90.273438 116.5 L 90.304688 116.675781 L 90.5 116.570312 L 90.53125 116.746094 L 90.726562 116.640625 L 90.757812 116.816406 L 90.953125 116.710938 L 90.984375 116.886719 L 91.175781 116.777344 L 91.210938 116.957031 L 91.402344 116.847656 L 91.433594 117.027344 L 91.628906 116.917969 L 91.660156 117.097656 L 91.855469 116.988281 L 91.886719 117.167969 L 92.082031 117.058594 L 92.113281 117.234375 L 92.308594 117.128906 L 92.339844 117.304688 L 92.53125 117.199219 L 92.566406 117.375 L 92.757812 117.269531 L 92.789062 117.445312 L 92.984375 117.335938 L 93.015625 117.515625 L 93.210938 117.40625 L 93.242188 117.585938 L 93.4375 117.476562 L 93.46875 117.65625 L 93.660156 117.546875 L 93.695312 117.726562 L 93.886719 117.617188 L 93.917969 117.792969 L 94.113281 117.6875 L 94.144531 117.863281 L 151.917969 87.292969 L 146.179688 64.011719 Z M 49.800781 111.96875 C 49.15625 112.53125 48.480469 113.011719 47.769531 113.40625 C 46.757812 113.96875 45.910156 114.097656 45.222656 113.796875 C 44.539062 113.5 44.085938 112.777344 43.863281 111.628906 L 42.203125 103.046875 C 42.203125 103.046875 42.199219 103.039062 42.195312 103.042969 L 39.617188 104.472656 C 39.617188 104.472656 39.613281 104.472656 39.613281 104.46875 L 39.175781 102.222656 C 39.175781 102.222656 39.175781 102.210938 39.183594 102.210938 L 41.757812 100.78125 C 41.757812 100.78125 41.765625 100.777344 41.765625 100.773438 L 40.949219 96.550781 C 40.949219 96.550781 40.949219 96.542969 40.953125 96.539062 L 43.417969 96.167969 C 43.417969 96.167969 43.421875 96.167969 43.421875 96.171875 L 44.066406 99.496094 C 44.066406 99.496094 44.070312 99.5 44.070312 99.496094 L 47.195312 97.765625 C 47.195312 97.765625 47.203125 97.765625 47.203125 97.769531 L 47.636719 100.015625 C 47.636719 100.015625 47.636719 100.023438 47.632812 100.023438 L 44.507812 101.757812 C 44.507812 101.757812 44.5 101.765625 44.5 101.765625 L 46.125 110.175781 C 46.222656 110.667969 46.429688 110.96875 46.75 111.082031 C 47.070312 111.195312 47.5 111.105469 48.042969 110.800781 C 48.371094 110.617188 48.660156 110.433594 48.902344 110.246094 L 49.394531 109.871094 L 49.792969 111.949219 C 49.792969 111.949219 49.792969 111.953125 49.789062 111.957031 Z M 55.289062 95.5 C 55.070312 95.5625 54.785156 95.6875 54.4375 95.878906 C 53.707031 96.285156 53.0625 96.90625 52.511719 97.730469 C 51.957031 98.558594 51.546875 99.527344 51.277344 100.632812 C 51.277344 100.632812 53.113281 110.125 53.113281 110.125 L 50.8125 111.402344 L 48.078125 97.277344 L 50.378906 96.003906 L 50.734375 97.839844 C 51.121094 96.941406 51.597656 96.109375 52.167969 95.359375 C 52.734375 94.605469 53.402344 94.015625 54.171875 93.589844 C 54.621094 93.339844 54.988281 93.222656 55.261719 93.234375 L 55.292969 95.5 Z M 70.320312 100.460938 C 69.832031 100.9375 69.363281 101.304688 68.910156 101.554688 C 67.496094 102.339844 66.492188 102.082031 65.894531 100.785156 C 65.507812 101.6875 64.960938 102.59375 64.246094 103.496094 C 63.535156 104.402344 62.761719 105.085938 61.921875 105.550781 C 60.683594 106.234375 59.609375 106.417969 58.699219 106.101562 C 57.789062 105.785156 57.214844 105.003906 56.972656 103.761719 C 56.71875 102.441406 56.933594 101.171875 57.628906 99.957031 C 58.316406 98.742188 59.289062 97.714844 60.535156 96.875 L 64.527344 94.164062 L 64.34375 93.199219 C 64.1875 92.390625 63.800781 91.921875 63.1875 91.792969 C 62.574219 91.660156 61.832031 91.839844 60.960938 92.320312 C 60.230469 92.726562 59.652344 93.257812 59.226562 93.910156 C 58.804688 94.558594 58.578125 95.320312 58.554688 96.191406 L 56.382812 97.394531 C 56.289062 95.800781 56.65625 94.34375 57.496094 93.027344 C 58.332031 91.710938 59.394531 90.691406 60.679688 89.976562 C 62.214844 89.125 63.519531 88.855469 64.59375 89.167969 C 65.664062 89.476562 66.332031 90.304688 66.589844 91.640625 L 67.871094 98.25 C 67.960938 98.71875 68.128906 99.03125 68.367188 99.179688 C 68.609375 99.328125 68.921875 99.292969 69.304688 99.082031 C 69.53125 98.953125 69.75 98.792969 69.960938 98.59375 L 70.320312 100.457031 Z M 82.445312 93.859375 L 80.144531 95.132812 L 79.84375 93.578125 C 79.488281 94.335938 79 95.09375 78.371094 95.835938 C 77.746094 96.578125 76.96875 97.210938 76.042969 97.71875 C 74.960938 98.320312 73.90625 98.570312 72.875 98.476562 C 71.84375 98.378906 70.953125 97.925781 70.195312 97.113281 C 69.441406 96.300781 68.917969 95.164062 68.636719 93.691406 C 68.351562 92.222656 68.355469 90.796875 68.644531 89.402344 C 68.933594 88.011719 69.476562 86.761719 70.269531 85.65625 C 71.058594 84.550781 72.015625 83.6875 73.152344 83.058594 C 73.988281 82.59375 74.808594 82.3125 75.609375 82.210938 C 76.410156 82.113281 77.109375 82.210938 77.703125 82.503906 L 76.585938 76.703125 L 79.078125 76.425781 L 82.445312 93.851562 Z M 83.5625 89.6875 C 82.835938 88.871094 82.328125 87.730469 82.046875 86.261719 C 81.769531 84.828125 81.8125 83.398438 82.171875 81.96875 C 82.53125 80.539062 83.136719 79.242188 83.996094 78.082031 C 84.851562 76.917969 85.851562 76.019531 87.003906 75.378906 C 88.171875 74.734375 89.277344 74.4375 90.320312 74.496094 C 91.367188 74.550781 92.257812 74.972656 92.996094 75.75 C 93.734375 76.527344 94.25 77.660156 94.535156 79.148438 L 94.722656 80.109375 L 84.523438 85.765625 C 84.816406 87.082031 85.40625 87.917969 86.296875 88.269531 C 87.183594 88.621094 88.230469 88.460938 89.429688 87.796875 C 90.882812 86.992188 91.871094 85.832031 92.40625 84.3125 C 92.546875 83.914062 92.613281 83.507812 92.695312 83.109375 C 92.734375 82.910156 92.871094 82.730469 93.03125 82.636719 L 94.863281 81.625 C 94.808594 83.425781 94.351562 85.066406 93.5 86.539062 C 92.648438 88.015625 91.425781 89.1875 89.84375 90.070312 C 88.535156 90.792969 87.34375 91.117188 86.265625 91.035156 C 85.1875 90.957031 84.289062 90.507812 83.558594 89.691406 Z M 95.742188 101.480469 C 95.46875 102.40625 94.996094 103.269531 94.320312 104.082031 C 93.644531 104.894531 92.820312 105.574219 91.847656 106.113281 C 90.292969 106.972656 88.960938 107.253906 87.839844 106.957031 C 86.722656 106.65625 85.957031 105.808594 85.554688 104.40625 L 87.722656 103.203125 C 88.0625 103.871094 88.523438 104.277344 89.105469 104.425781 C 89.683594 104.574219 90.46875 104.371094 91.460938 103.824219 C 92.191406 103.417969 92.78125 102.894531 93.226562 102.25 C 93.671875 101.609375 93.832031 100.972656 93.710938 100.351562 C 93.59375 99.75 93.21875 99.425781 92.582031 99.382812 C 91.949219 99.339844 90.902344 99.511719 89.457031 99.898438 C 88.0625 100.273438 86.996094 100.3125 86.253906 100.019531 C 85.511719 99.71875 85.035156 99.035156 84.828125 97.960938 C 84.699219 97.28125 84.761719 96.550781 85.027344 95.757812 C 85.289062 94.96875 85.71875 94.210938 86.324219 93.488281 C 86.929688 92.769531 87.65625 92.171875 88.507812 91.699219 C 89.921875 90.914062 91.136719 90.671875 92.15625 90.957031 C 93.179688 91.246094 93.886719 92.070312 94.285156 93.4375 L 92.011719 94.695312 C 91.777344 93.992188 91.386719 93.574219 90.839844 93.4375 C 90.292969 93.300781 89.652344 93.4375 88.921875 93.84375 C 88.347656 94.160156 87.859375 94.582031 87.460938 95.109375 C 87.058594 95.632812 86.910156 96.160156 87.011719 96.6875 C 87.109375 97.195312 87.453125 97.46875 88.039062 97.507812 C 88.625 97.550781 89.570312 97.402344 90.878906 97.074219 C 92.40625 96.6875 93.574219 96.609375 94.378906 96.851562 C 95.1875 97.089844 95.695312 97.734375 95.902344 98.792969 C 96.070312 99.660156 96.015625 100.554688 95.738281 101.476562 Z M 104.601562 98.726562 C 103.960938 99.292969 103.28125 99.773438 102.566406 100.167969 C 101.554688 100.730469 100.710938 100.859375 100.023438 100.5625 C 99.339844 100.261719 98.882812 99.539062 98.660156 98.390625 L 97 89.800781 L 94.414062 91.238281 L 93.976562 88.976562 L 96.566406 87.542969 L 95.746094 83.304688 L 98.21875 82.933594 L 98.867188 86.265625 L 102 84.527344 L 102.4375 86.785156 L 99.300781 88.527344 L 100.929688 96.941406 C 101.023438 97.429688 101.230469 97.734375 101.554688 97.847656 C 101.875 97.960938 102.304688 97.871094 102.84375 97.566406 C 103.175781 97.382812 103.460938 97.199219 103.707031 97.011719 L 104.199219 96.636719 L 104.601562 98.71875 Z M 117.773438 91.296875 C 117.289062 91.777344 116.816406 92.140625 116.367188 92.390625 C 114.953125 93.175781 113.949219 92.917969 113.351562 91.625 C 112.964844 92.523438 112.414062 93.429688 111.703125 94.335938 C 110.988281 95.242188 110.214844 95.925781 109.378906 96.390625 C 108.140625 97.074219 107.066406 97.261719 106.15625 96.941406 C 105.246094 96.625 104.671875 95.84375 104.429688 94.601562 C 104.175781 93.285156 104.390625 92.015625 105.082031 90.796875 C 105.773438 89.578125 106.742188 88.554688 107.992188 87.714844 L 111.984375 85.003906 L 111.796875 84.042969 C 111.640625 83.230469 111.257812 82.761719 110.644531 82.632812 C 110.03125 82.503906 109.289062 82.679688 108.417969 83.164062 C 107.683594 83.570312 107.105469 84.097656 106.683594 84.75 C 106.261719 85.398438 106.035156 86.160156 106.007812 87.03125 L 103.839844 88.234375 C 103.746094 86.640625 104.113281 85.183594 104.949219 83.867188 C 105.785156 82.550781 106.847656 81.53125 108.136719 80.816406 C 109.671875 79.964844 110.972656 79.695312 112.046875 80.007812 C 113.121094 80.320312 113.785156 81.144531 114.042969 82.480469 L 115.324219 89.089844 C 115.414062 89.5625 115.578125 89.871094 115.820312 90.019531 C 116.0625 90.167969 116.375 90.132812 116.757812 89.917969 C 116.984375 89.792969 117.203125 89.628906 117.414062 89.429688 L 117.773438 91.292969 Z M 123.082031 75.058594 C 122.863281 75.121094 122.578125 75.246094 122.230469 75.4375 C 121.5 75.84375 120.855469 76.460938 120.304688 77.289062 C 119.75 78.117188 119.339844 79.085938 119.070312 80.191406 C 119.070312 80.191406 120.902344 89.679688 120.902344 89.683594 L 118.605469 90.960938 L 115.871094 76.835938 L 118.171875 75.5625 L 118.527344 77.398438 C 118.914062 76.496094 119.390625 75.667969 119.960938 74.917969 C 120.527344 74.164062 121.195312 73.574219 121.964844 73.148438 C 122.414062 72.898438 122.78125 72.78125 123.054688 72.792969 L 123.085938 75.058594 Z M 134.953125 79.734375 C 134.679688 80.660156 134.203125 81.527344 133.53125 82.335938 C 132.859375 83.148438 132.035156 83.824219 131.058594 84.363281 C 129.503906 85.226562 128.171875 85.507812 127.050781 85.210938 C 125.933594 84.914062 125.167969 84.0625 124.765625 82.660156 L 126.933594 81.457031 C 127.277344 82.125 127.738281 82.53125 128.316406 82.679688 C 128.894531 82.828125 129.679688 82.625 130.671875 82.078125 C 131.402344 81.671875 131.992188 81.148438 132.4375 80.503906 C 132.882812 79.863281 133.042969 79.226562 132.925781 78.605469 C 132.804688 78 132.429688 77.679688 131.796875 77.636719 C 131.160156 77.59375 130.117188 77.765625 128.667969 78.152344 C 127.277344 78.527344 126.207031 78.566406 125.464844 78.273438 C 124.722656 77.976562 124.246094 77.289062 124.039062 76.214844 C 123.910156 75.535156 123.972656 74.800781 124.238281 74.011719 C 124.5 73.222656 124.929688 72.464844 125.535156 71.742188 C 126.140625 71.023438 126.867188 70.425781 127.722656 69.953125 C 129.132812 69.167969 130.347656 68.925781 131.367188 69.210938 C 132.390625 69.5 133.097656 70.324219 133.496094 71.6875 L 131.222656 72.949219 C 130.992188 72.246094 130.597656 71.824219 130.050781 71.6875 C 129.503906 71.554688 128.867188 71.6875 128.132812 72.09375 C 127.558594 72.414062 127.070312 72.835938 126.671875 73.363281 C 126.269531 73.886719 126.121094 74.414062 126.222656 74.9375 C 126.320312 75.445312 126.664062 75.722656 127.25 75.761719 C 127.835938 75.800781 128.785156 75.65625 130.089844 75.328125 C 131.617188 74.9375 132.785156 74.863281 133.59375 75.105469 C 134.398438 75.34375 134.90625 75.988281 135.109375 77.046875 C 135.277344 77.914062 135.222656 78.808594 134.945312 79.730469 Z M 134.953125 79.734375 " fill-opacity="1" fill-rule="nonzero"/></g><path fill="#ffffff" d="M 64.910156 96.140625 L 61.082031 98.796875 C 60.371094 99.296875 59.859375 99.867188 59.546875 100.507812 C 59.234375 101.148438 59.140625 101.769531 59.257812 102.375 C 59.378906 103.015625 59.671875 103.390625 60.125 103.503906 C 60.578125 103.613281 61.125 103.496094 61.75 103.152344 C 63.109375 102.394531 64.328125 100.910156 65.402344 98.683594 L 64.910156 96.144531 Z M 64.910156 96.140625 " fill-opacity="1" fill-rule="nonzero"/><path fill="#ffffff" d="M 92.136719 79.164062 C 91.820312 78.023438 91.230469 77.339844 90.363281 77.097656 C 89.5 76.859375 88.527344 77.035156 87.445312 77.636719 C 86.398438 78.21875 85.574219 79.039062 84.96875 80.105469 C 84.363281 81.171875 84.089844 82.335938 84.140625 83.601562 Z M 92.136719 79.164062 " fill-opacity="1" fill-rule="nonzero"/></svg>